<?xml version="1.0" encoding="UTF-8"?>
<svg id="Layer_1" data-name="Layer 1" xmlns="http://www.w3.org/2000/svg" viewBox="0 0 258.03 178.32">
  <defs>
    <style>
      .cls-1, .cls-2, .cls-3 {
        fill: #fff;
      }

      .cls-4, .cls-5, .cls-2, .cls-3, .cls-6, .cls-7, .cls-8, .cls-9, .cls-10 {
        stroke-miterlimit: 10;
      }

      .cls-4, .cls-5, .cls-2, .cls-3, .cls-8, .cls-9 {
        stroke: #231f20;
      }

      .cls-4, .cls-5, .cls-11, .cls-8, .cls-10 {
        fill: #d6a779;
      }

      .cls-4, .cls-6 {
        stroke-width: 3px;
      }

      .cls-5, .cls-2, .cls-9, .cls-10 {
        stroke-width: 4px;
      }

      .cls-6 {
        stroke: #020202;
      }

      .cls-6, .cls-7, .cls-9 {
        fill: none;
      }

      .cls-7 {
        stroke-width: 2px;
      }

      .cls-7, .cls-10 {
        stroke: #000;
      }

      .cls-8 {
        stroke-width: 6px;
      }
    </style>
  </defs>
  <g>
    <path class="cls-11" d="m62.36,19.95c8.23-15.99,27.87-22.27,43.86-14.03,6.65,3.43,11.61,8.83,14.56,15.12-.53,1.72-.86,3.49-1.09,5.12-.42,3.01-.52,6.01-.42,8.99-4.1,12.21-11.98,22.18-21.32,31.58-7.06,1.48-14.66.64-21.57-2.93-15.98-8.23-22.26-27.87-14.02-43.85Z"/>
    <path class="cls-9" d="m119.27,35.15c-.1-2.98,0-5.98.42-8.99.23-1.63.56-3.4,1.09-5.12-2.95-6.29-7.91-11.69-14.56-15.12-15.99-8.24-35.63-1.96-43.86,14.03-8.24,15.98-1.96,35.62,14.02,43.85,6.91,3.57,14.51,4.41,21.57,2.93,9.34-9.4,17.22-19.37,21.32-31.58Z"/>
  </g>
  <g>
    <path class="cls-11" d="m112.18,6.67l10.3,10.38c-1.62,2.74-2.37,6.14-2.79,9.11-.42,3.03-.53,6.04-.42,9.04-4.52,13.42-13.62,24.11-24.18,34.35l-14.63-1.32s43.67-15.67,31.72-61.56Z"/>
    <path class="cls-9" d="m119.27,35.2c-.11-3,0-6.01.42-9.04.42-2.97,1.17-6.37,2.79-9.11l-10.3-10.38c11.95,45.89-31.72,61.56-31.72,61.56l14.63,1.32c10.56-10.24,19.66-20.93,24.18-34.35Z"/>
  </g>
  <path class="cls-5" d="m142.21,49.73c-1.61-3.46-2.96-7.05-3.81-10.73l-13.24-13.59c-1.01,5.13-.94,10.63-.21,15.77,1.37,9.57,3.72,18.93,5.83,28.32l5.08.51c3.88-2.55,8.03-4.89,12.17-7.3-1.93-4.35-3.82-8.7-5.81-12.98Z"/>
  <path class="cls-2" d="m144.44,70.87l7.68.77c-.65-1.36-1.29-2.72-1.92-4.09-1.92,1.11-3.85,2.2-5.76,3.32Z"/>
  <path class="cls-5" d="m124.94,65.93c-2.19-9.88-5.15-19.84-5.64-29.95-4.28,11.5-11.68,21.35-20.3,30.34l26.59,2.67c-.22-1.02-.43-2.04-.65-3.05Z"/>
  <path class="cls-5" d="m154.86,64.8c1.11,2.51,2.25,5,3.46,7.46l13.84,1.39-11.99-12.31c-1.73,1.21-3.5,2.36-5.3,3.46Z"/>
  <path class="cls-2" d="m147.3,48.14c.82,1.79,1.68,3.56,2.51,5.33.99,2.13,1.95,4.28,2.9,6.44,1.26-.78,2.5-1.58,3.72-2.41l-9.12-9.36Z"/>
  <path class="cls-8" d="m67.23,102.21h-21.83c-.95.55-1.93,1.04-2.95,1.45-.68,1.11-1.56,2.11-2.61,2.91-11.87,9.06-24.31,17.12-36.85,25v16.25c0,6.6,4.92,12,10.93,12h53.31c6.01,0,10.93-5.4,10.93-12v-33.61c0-6.6-4.92-12-10.93-12Z"/>
  <rect class="cls-8" x="59.82" y="74.69" width="119.24" height="85.13" rx="12" ry="12"/>
  <path class="cls-1" d="m150.16,178.32c9.68,0,18.95-8.51,18.5-18.5s-8.13-18.5-18.5-18.5c-9.68,0-18.95,8.51-18.5,18.5s8.13,18.5,18.5,18.5h0Z"/>
  <path class="cls-1" d="m59.82,178.32c9.68,0,18.95-8.51,18.5-18.5s-8.13-18.5-18.5-18.5c-9.68,0-18.95,8.51-18.5,18.5s8.13,18.5,18.5,18.5h0Z"/>
  <circle class="cls-10" cx="150.89" cy="160.55" r="13.8"/>
  <circle class="cls-10" cx="59.82" cy="159.82" r="13.8"/>
  <circle class="cls-10" cx="59.59" cy="160.22" r="4.36"/>
  <circle class="cls-10" cx="150.16" cy="160.55" r="4.36"/>
  <rect class="cls-7" x="73.62" y="95.24" width="83.65" height="44.03" rx="12" ry="12"/>
  <path class="cls-7" d="m73.62,107.24s9.59,12,17.38,0c0,0,10.55,12,19.72,0,0,0,7.34,12,18.34,0,0,0,8.71,13.29,16.74,0,0,0,14.9,15.6,11.46-2.28"/>
  <rect class="cls-6" x="35.05" y="115.05" width="20.18" height="26.31"/>
  <ellipse class="cls-5" cx="208.61" cy="135.29" rx="21.32" ry="22.36"/>
  <circle class="cls-5" cx="186.12" cy="146.09" r="16.57"/>
  <ellipse class="cls-5" cx="229.94" cy="147.02" rx="18.24" ry="16.9"/>
  <path class="cls-3" d="m163.29,151.8s24.76,12.46,44.64-17.01c0,0,14.68,37.52,46.47,19.62,0,0-24.76,22.45-47.08-15.46,0,0-18.34,27.82-44.03,12.84Z"/>
  <path class="cls-4" d="m179.33,171.31c3.06.04,6.13.08,9.2.14,8.8-2.82,17.6-10.42,17.6-10.42.72,5.4,4.93,8.68,9.77,10.68,6.21-.05,12.45.02,18.56.76,3.94-4.37,11.98-13.33,11.41-13.11-.75.29-4.87,1.67-4.87,1.67-22.17,4.42-33.16-21.22-33.16-21.22-20.78,23.87-38.26,15.57-38.26,15.57-.78-.3,6.2,12.3,7.91,15.38.62.17,1.24.37,1.86.56Z"/>
</svg>